<svg width="96" height="96" viewBox="0 0 96 96" fill="none" xmlns="http://www.w3.org/2000/svg">
  <rect width="96" height="96" rx="24" fill="#1F8F86"/>
  <path d="M20 34C20 30.6863 22.6863 28 26 28H70C73.3137 28 76 30.6863 76 34V41C72.6863 41 70 43.6863 70 47C70 50.3137 72.6863 53 76 53V62C76 65.3137 73.3137 68 70 68H26C22.6863 68 20 65.3137 20 62V53C23.3137 53 26 50.3137 26 47C26 43.6863 23.3137 41 20 41V34Z" fill="white"/>
  <path d="M36 48H60" stroke="#1F8F86" stroke-width="6" stroke-linecap="round"/>
  <path d="M48 36V60" stroke="#1F8F86" stroke-width="6" stroke-linecap="round"/>
</svg>
